<?xml version="1.0" encoding="utf-8"?>
<!-- Generator: Adobe Illustrator 24.1.3, SVG Export Plug-In . SVG Version: 6.00 Build 0)  -->
<svg version="1.1" id="Layer_1" xmlns="http://www.w3.org/2000/svg" xmlns:xlink="http://www.w3.org/1999/xlink" x="0px" y="0px"
	 viewBox="0 0 612 612" style="enable-background:new 0 0 612 612;" xml:space="preserve">
<g>
	<polygon points="90,272.8 94.1,249.5 30.3,249.5 26.1,272.8 44.3,272.8 29.9,354.3 57.5,354.3 71.9,272.8 	"/>
	<path d="M109.2,249.5L71.5,354.3h27l5.6-17.8h19.1l-0.7,17.8H150l-0.7-104.9H109.2z M123.6,314.7h-12.3l12.9-41h1.1L123.6,314.7z"
		/>
	<path d="M217.8,249c-3.5-0.5-7.1-0.8-10.6-0.8c-9.9,0-17.4,1.7-22.7,5c-5.3,3.3-9.4,8.6-12.3,15.9c-2.9,7.3-5.6,18.2-8.1,32.8
		c-2.6,14.6-3.8,25.6-3.5,32.8c0.2,7.3,2.4,12.6,6.6,15.9c4.1,3.3,11.2,5,21.2,5c3.3,0,6.8-0.3,10.5-0.8c3.7-0.5,6.9-1.2,9.3-2
		l3.7-20.7c-3.9,0.6-8.5,0.9-13.9,0.9c-4.2,0-6.9-0.6-8.2-1.8c-1.3-1.2-1.7-3.6-1.4-7.4c0.3-3.8,1.4-11.1,3.3-22
		c1.9-10.9,3.4-18.2,4.4-21.9c1-3.7,2.4-6.2,4-7.4c1.7-1.2,4.6-1.8,8.8-1.8c2.5,0,7,0.3,13.3,0.9l3.7-20.9
		C223.9,250.1,221.3,249.5,217.8,249z"/>
	<polygon points="230.8,354.3 258.4,354.3 272.8,272.8 290.9,272.8 295,249.5 231.2,249.5 227,272.8 245.2,272.8 	"/>
	<polygon points="329.6,249.5 302.2,249.5 283.7,354.3 311.1,354.3 	"/>
	<path d="M356.8,331.2c-1.3-1.2-1.7-3.6-1.4-7.4c0.3-3.8,1.4-11.1,3.3-22c1.9-10.9,3.4-18.2,4.4-21.9c1-3.7,2.4-6.2,4-7.4
		c1.7-1.2,4.6-1.8,8.8-1.8c2.5,0,7,0.3,13.3,0.9l3.7-20.9c-1.8-0.7-4.5-1.3-8-1.8c-3.5-0.5-7.1-0.8-10.6-0.8c-9.9,0-17.4,1.7-22.7,5
		c-5.3,3.3-9.4,8.6-12.3,15.9c-2.9,7.3-5.6,18.2-8.1,32.8c-2.6,14.6-3.8,25.6-3.5,32.8c0.2,7.3,2.4,12.6,6.6,15.9
		c4.1,3.3,11.2,5,21.2,5c3.3,0,6.8-0.3,10.5-0.8c3.7-0.5,6.9-1.2,9.3-2l3.7-20.7c-3.9,0.6-8.5,0.9-13.9,0.9
		C360.7,333,358,332.4,356.8,331.2z"/>
	<path d="M433.3,248.2c-7,0-13,0.8-17.9,2.4c-4.9,1.6-9.1,4.7-12.6,9.5c-3.5,4.7-6.1,11.6-7.7,20.5c-1.6,9.1-2,16.2-1.1,21.3
		c0.9,5,3.4,8,7.5,8.8l12.5,2.4c3.1,0.5,5.1,1.1,6.3,1.7c1.1,0.6,1.8,1.6,1.9,2.8c0.2,1.3,0,3.4-0.5,6.5c-0.4,2-0.7,3.6-1.1,4.7
		c-0.4,1.1-1,2-1.7,2.6c-0.7,0.7-1.8,1.2-3.3,1.4c-1.5,0.2-3.8,0.3-6.9,0.3c-4.5,0-11.4-0.4-20.7-1.1l-3.7,20.7
		c3.6,0.8,8.1,1.5,13.4,2.1c5.3,0.6,10.3,0.8,14.9,0.8c6.9,0,12.6-0.8,17.2-2.3c4.5-1.5,8.5-4.8,12-9.9c3.5-5.1,6.1-12.8,7.9-23
		c1.3-7.5,1.6-13.5,0.7-18c-0.8-3.9-2.3-6.6-4.4-8.1c-2.1-1.5-4.8-2.6-8.2-3.4l-10.8-2.1c-1.9-0.4-3.2-0.9-3.9-1.4
		c-0.7-0.5-1.1-1.3-1.2-2.4c-0.1-1.1,0.1-2.9,0.6-5.3c0.4-2.1,0.8-3.8,1.2-4.9c0.4-1.1,1.1-2,1.9-2.6c0.8-0.6,1.9-1,3.3-1.1
		c1.4-0.2,3.6-0.2,6.5-0.2c6.4,0,12.6,0.4,18.6,1.1L458,251c-2.4-0.6-5.8-1.2-10.2-1.8C443.5,248.5,438.6,248.2,433.3,248.2z"/>
	<polygon points="43.6,237.2 36.8,237.2 40.2,218.3 37.9,218.3 34.2,239.3 43.2,239.3 	"/>
	<polygon points="51.8,218.3 49.5,218.3 45.8,239.3 48.1,239.3 	"/>
	<path d="M54.4,238.7c0.8,0.5,2.1,0.8,4,0.8c0.7,0,1.5-0.1,2.5-0.2c0.9-0.1,1.8-0.2,2.5-0.4l1.9-10.8H60l-0.3,2h3.1l-1.3,7.2
		c-0.7,0.2-1.6,0.2-2.7,0.2c-1.3,0-2.2-0.2-2.7-0.6c-0.5-0.4-0.7-1.2-0.7-2.4c0-1.2,0.3-3.1,0.7-5.7c0.5-2.9,1-4.9,1.4-6.1
		c0.4-1.2,1-1.9,1.7-2.2c0.7-0.3,1.9-0.5,3.5-0.5c0.5,0,1.1,0,1.9,0.1c0.8,0.1,1.4,0.2,1.9,0.3l0.3-1.9c-0.5-0.1-1.2-0.3-2.1-0.4
		c-0.9-0.1-1.8-0.2-2.6-0.2c-1.9,0-3.3,0.3-4.3,0.8c-1,0.6-1.8,1.6-2.4,3.1c-0.6,1.5-1.2,3.8-1.7,6.8c-0.5,3.1-0.8,5.4-0.7,6.9
		C53.2,237.1,53.6,238.2,54.4,238.7z"/>
	<polygon points="71.1,229.7 78.4,229.7 76.7,239.3 79,239.3 82.7,218.3 80.4,218.3 78.7,227.6 71.5,227.6 73.1,218.3 70.9,218.3 
		67.2,239.3 69.4,239.3 	"/>
	<polygon points="86.2,239.3 88.5,239.3 91.9,220.4 96.5,220.4 96.9,218.3 85.3,218.3 84.9,220.4 89.6,220.4 	"/>
	<path d="M103.2,238.7c0.8,0.5,2.1,0.8,4,0.8c0.7,0,1.5-0.1,2.5-0.2c0.9-0.1,1.8-0.2,2.5-0.4l1.9-10.8h-5.3l-0.3,2h3.1l-1.3,7.2
		c-0.7,0.2-1.6,0.2-2.7,0.2c-1.3,0-2.2-0.2-2.7-0.6c-0.5-0.4-0.7-1.2-0.7-2.4c0-1.2,0.3-3.1,0.7-5.7c0.5-2.9,1-4.9,1.4-6.1
		c0.4-1.2,1-1.9,1.7-2.2c0.7-0.3,1.9-0.5,3.5-0.5c0.5,0,1.1,0,1.9,0.1c0.8,0.1,1.4,0.2,1.9,0.3l0.3-1.9c-0.5-0.1-1.2-0.3-2.1-0.4
		c-0.9-0.1-1.8-0.2-2.6-0.2c-1.9,0-3.3,0.3-4.3,0.8c-1,0.6-1.8,1.6-2.4,3.1c-0.6,1.5-1.2,3.8-1.7,6.8c-0.5,3.1-0.8,5.4-0.7,6.9
		C101.9,237.1,102.4,238.2,103.2,238.7z"/>
	<path d="M119.7,230.8h3.9h0.4l1.1,8.4h2.4l-1.3-8.8c1.1-0.4,1.9-1.1,2.4-2.1c0.5-1,0.9-2.2,1.1-3.8c0.2-1.4,0.3-2.5,0.3-3.4
		c-0.1-0.9-0.4-1.6-1-2.1c-0.6-0.5-1.6-0.8-3.1-0.8h-6.4l-3.7,21h2.3L119.7,230.8z M121.6,220.3h3.6c1,0,1.7,0.2,2.1,0.5
		c0.4,0.3,0.6,0.7,0.6,1.3c0,0.6,0,1.4-0.2,2.5c-0.2,1.1-0.4,1.9-0.6,2.5c-0.2,0.6-0.6,1-1.1,1.3c-0.5,0.3-1.3,0.5-2.2,0.5h-3.5
		L121.6,220.3z"/>
	<path d="M131.7,239.3l2.5-5.8h6.4l0.4,5.8h2.3l-1.8-21h-3l-9.2,21H131.7z M139.4,221.1h0.2l0.8,10.4H135L139.4,221.1z"/>
	<polygon points="151,228.5 150.8,228.5 148.5,218.3 146.1,218.3 149.2,231.2 147.8,239.3 150.1,239.3 151.5,231.2 159.2,218.3 
		156.9,218.3 	"/>
	<path d="M166.9,239.5c1.6,0,3.4-0.8,4.8-2.2c0.5,1,0.8,1.4,1,1.9h2.6c-1.1-2-1.7-3-2-3.6c1.7-2.1,2.9-5,3.6-7.4h-2.1
		c-0.3,1.4-1,4-2.3,5.9c-1.2-2.1-2.3-4.6-2.9-5.8l0-0.1c2.9-1.8,4.1-3.5,4.5-5.5c0.5-2.8-1-4.2-2.9-4.2c-2.7,0-4.6,2.3-5,4.8
		c-0.3,1.7,0,3.2,0.7,4.6l0,0.1c-2.4,1.6-3.8,3.7-4.2,5.9C162.3,236.7,163.5,239.5,166.9,239.5z M168.5,223.1
		c0.3-1.6,1.1-2.9,2.4-2.9c1.3,0,1.5,1.3,1.3,2.6c-0.3,1.6-1.4,2.9-3.1,4.1C168.4,225.6,168.3,224.5,168.5,223.1z M165.1,233.6
		c0.3-1.9,1.5-3.3,2.6-4.2c0.9,1.9,2,4.1,3.3,6.5c-0.9,1.1-2.1,1.8-3.4,1.8C165.5,237.6,164.7,235.7,165.1,233.6z"/>
	<polygon points="186.9,239.3 189.2,239.3 192.6,220.4 197.2,220.4 197.6,218.3 186,218.3 185.6,220.4 190.3,220.4 	"/>
	<polygon points="198.8,239.3 200.4,229.7 207.7,229.7 206.1,239.3 208.3,239.3 212,218.3 209.7,218.3 208.1,227.6 200.8,227.6 
		202.5,218.3 200.2,218.3 196.5,239.3 	"/>
	<polygon points="222.8,237.2 215.2,237.2 216.6,229.7 223.2,229.7 223.5,227.6 216.9,227.6 218.2,220.3 225.8,220.3 226.2,218.3 
		216.3,218.3 212.6,239.3 222.5,239.3 	"/>
	<path d="M234.8,233.4h6.4l0.4,5.8h2.3l-1.8-21h-3l-9.2,21h2.3L234.8,233.4z M240.1,221.1h0.2l0.8,10.4h-5.3L240.1,221.1z"/>
	<path d="M257.3,237.8c0.9-1,1.5-2.3,1.8-4c0.3-1.4,0.2-2.6-0.1-3.5c-0.3-0.9-1.1-1.4-2.3-1.7l0-0.1c1.1-0.2,2-0.8,2.6-1.6
		c0.6-0.8,1.1-1.9,1.3-3.4c0.3-1.7,0.2-3-0.4-3.9c-0.6-0.9-1.8-1.3-3.5-1.3h-6.4l-3.7,21h6.2C254.9,239.3,256.3,238.8,257.3,237.8z
		 M252.3,220.3h3.5c0.9,0,1.5,0.1,1.9,0.4c0.4,0.2,0.7,0.6,0.8,1.1c0.1,0.5,0.1,1.2-0.1,2.1c-0.2,1.3-0.6,2.2-1.3,2.8
		c-0.6,0.6-1.5,0.9-2.6,0.9H251L252.3,220.3z M249.3,237.2l1.3-7.6h3.6c1.2,0,2,0.3,2.4,0.9c0.4,0.6,0.5,1.6,0.2,3
		c-0.2,1.4-0.6,2.4-1.2,2.9c-0.6,0.6-1.5,0.9-2.7,0.9H249.3z"/>
	<path d="M263.5,238.7c0.7,0.5,2,0.8,3.8,0.8c1.8,0,3.2-0.3,4.1-0.8c0.9-0.5,1.6-1.4,2-2.6c0.5-1.2,0.9-3.2,1.4-5.9l2.1-11.9h-2.3
		l-2.3,12.9c-0.3,1.9-0.6,3.3-0.9,4.1c-0.3,0.8-0.7,1.4-1.2,1.7c-0.5,0.3-1.4,0.5-2.5,0.5c-1.2,0-1.9-0.2-2.4-0.5s-0.6-0.9-0.6-1.7
		c0-0.8,0.2-2.2,0.5-4.1l2.3-12.9h-2.3l-2.1,11.9c-0.5,2.7-0.7,4.7-0.7,5.9C262.5,237.3,262.8,238.2,263.5,238.7z"/>
	<polygon points="282.4,223.1 282.5,223.1 286.9,239.3 289.2,239.3 292.9,218.3 290.7,218.3 287.9,234.1 287.8,234.1 283.5,218.3 
		281.1,218.3 277.4,239.3 279.6,239.3 	"/>
	<path d="M302.9,238.5c1-0.5,1.7-1.5,2.2-2.9c0.5-1.4,1-3.7,1.6-6.8c0.6-3.2,0.8-5.5,0.8-6.8c0-1.4-0.4-2.3-1.2-2.9
		c-0.8-0.5-2.2-0.8-4.2-0.8h-5l-3.7,21h5C300.5,239.3,302,239,302.9,238.5z M299.1,220.3h2.7c1.4,0,2.3,0.1,2.8,0.4
		c0.5,0.3,0.7,1,0.7,2.1c0,1.1-0.3,3.1-0.8,5.9c-0.5,2.9-0.9,4.8-1.3,5.9c-0.4,1.1-0.9,1.8-1.4,2.1c-0.6,0.3-1.6,0.4-3,0.4h-2.7
		L299.1,220.3z"/>
	<path d="M309.3,239.3l2.5-5.8h6.4l0.4,5.8h2.3l-1.8-21h-3l-9.2,21H309.3z M317.1,221.1h0.2l0.8,10.4h-5.3L317.1,221.1z"/>
	<polygon points="328.7,223.1 328.8,223.1 333.2,239.3 335.5,239.3 339.2,218.3 337,218.3 334.2,234.1 334.1,234.1 329.8,218.3 
		327.4,218.3 323.7,239.3 325.9,239.3 	"/>
	<polygon points="342.8,239.3 345.1,239.3 348.4,220.4 353.1,220.4 353.4,218.3 341.8,218.3 341.4,220.4 346.1,220.4 	"/>
	<path d="M194.2,365.6c-1-0.8-2.9-1.1-5.7-1.1s-4.8,0.4-6.1,1.1c-1.3,0.8-2.3,2.1-3,4c-0.7,1.9-1.4,5.1-2.2,9.6
		c-0.8,4.5-1.2,7.7-1.2,9.6c0,1.9,0.5,3.2,1.6,4c1,0.8,2.9,1.1,5.7,1.1c2.7,0,4.8-0.4,6.1-1.1c1.3-0.8,2.3-2.1,3-4
		c0.7-1.9,1.4-5.1,2.2-9.6c0.8-4.5,1.2-7.7,1.2-9.6C195.8,367.7,195.3,366.3,194.2,365.6z M191.4,379.2c-0.7,4-1.3,6.8-1.8,8.4
		c-0.5,1.6-1.1,2.6-1.9,3c-0.8,0.4-2.1,0.6-3.8,0.6c-1.8,0-3-0.2-3.6-0.6c-0.6-0.4-0.9-1.4-0.9-3c0.1-1.6,0.4-4.4,1.1-8.4
		c0.7-4,1.3-6.8,1.8-8.4c0.5-1.6,1.1-2.6,1.9-3c0.8-0.4,2.1-0.6,3.8-0.6c1.8,0,3,0.2,3.6,0.6c0.6,0.4,0.9,1.4,0.9,3
		C192.5,372.4,192.1,375.2,191.4,379.2z"/>
	<polygon points="197.2,393.6 200.4,393.6 202.6,381.1 211.3,381.1 211.8,378.3 203.1,378.3 205,367.6 214.8,367.6 215.3,364.8 
		202.3,364.8 	"/>
	<polygon points="241.2,364.8 225.2,364.8 224.7,367.6 231.1,367.6 226.5,393.6 229.7,393.6 234.2,367.6 240.7,367.6 	"/>
	<polygon points="255.6,377.7 245.6,377.7 247.9,364.8 244.8,364.8 239.7,393.6 242.8,393.6 245.1,380.5 255.1,380.5 252.8,393.6 
		255.9,393.6 261,364.8 257.9,364.8 	"/>
	<polygon points="261.8,393.6 275.4,393.6 275.9,390.9 265.4,390.9 267.2,380.4 276.3,380.4 276.8,377.7 267.7,377.7 269.5,367.6 
		280,367.6 280.5,364.8 266.8,364.8 	"/>
	<polygon points="295.7,367.6 305.6,367.6 306,364.8 293,364.8 288,393.6 291.1,393.6 293.3,381.1 302.1,381.1 302.6,378.3 
		293.8,378.3 	"/>
	<polygon points="305.2,393.6 308.3,393.6 313.4,364.8 310.3,364.8 	"/>
	<polygon points="314.3,393.6 317.4,393.6 319.6,381.1 328.4,381.1 328.9,378.3 320.1,378.3 322,367.6 331.9,367.6 332.4,364.8 
		319.4,364.8 	"/>
	<polygon points="350.2,364.8 334.2,364.8 333.7,367.6 340.1,367.6 335.5,393.6 338.7,393.6 343.3,367.6 349.7,367.6 	"/>
	<polygon points="364.6,377.7 354.6,377.7 356.9,364.8 353.8,364.8 348.7,393.6 351.8,393.6 354.1,380.5 364.1,380.5 361.8,393.6 
		364.9,393.6 370,364.8 366.9,364.8 	"/>
	<polygon points="386.6,367.6 397.1,367.6 397.6,364.8 383.9,364.8 378.8,393.6 392.5,393.6 393,390.9 382.5,390.9 384.3,380.4 
		393.4,380.4 393.9,377.7 384.8,377.7 	"/>
	<path d="M416.5,368.8c-0.1-1.2-0.5-2.2-1.4-2.9c-0.9-0.7-2.3-1.1-4.3-1.1h-8.8l-5.1,28.8h3.1l2-11.6h5.4h0.6l1.6,11.6h3.3
		l-1.8-12.2c1.5-0.6,2.6-1.5,3.3-2.9c0.7-1.4,1.2-3.1,1.6-5.2C416.5,371.5,416.6,370,416.5,368.8z M413,373.4
		c-0.3,1.5-0.6,2.6-0.9,3.4c-0.3,0.8-0.8,1.4-1.6,1.8c-0.7,0.4-1.7,0.6-3,0.6h-4.9l2.1-11.7h4.9c1.3,0,2.3,0.2,2.8,0.6
		c0.5,0.4,0.8,1,0.9,1.8C413.4,370.8,413.3,371.9,413,373.4z"/>
	<path d="M428.1,364.8l-12.6,28.8h3.1l3.4-8h8.8l0.6,8h3.2l-2.5-28.8H428.1z M423.2,382.9l6.1-14.3h0.2l1.1,14.3H423.2z"/>
	<polygon points="15.7,270.9 25,218.6 0,227.7 	"/>
	<path d="M608.4,314.1l-14.2-16.9c-0.4,2.9-1.3,5.7-2.8,8.3l-41,71c-4.1,7.1-11.7,11.5-19.9,11.5c-2.9,0-5.7-0.5-8.3-1.6l0,0.1
		c5.4,6.4,15.1,7.3,21.5,1.9l62.8-52.7C613,330.2,613.8,320.5,608.4,314.1z"/>
	<path d="M543.8,372.6l41-71c4.2-7.3,1.7-16.6-5.6-20.8l-17.2-9.9c0.2,2.1,0.2,4.2-0.2,6.3l-14.2,80.7c-1.9,11-11.4,19-22.6,19
		c-1.3,0-2.7-0.1-4-0.3l-1.4-0.3l3.4,2C530.2,382.4,539.6,379.8,543.8,372.6z"/>
	<path d="M506,319.2c-0.9-0.2-1.7,0.4-1.9,1.3c-0.2,0.9,0.4,1.7,1.3,1.9c0.9,0.2,1.7-0.4,1.9-1.3C507.5,320.2,506.9,319.4,506,319.2
		z"/>
	<path d="M522.8,322.2c-0.9-0.2-1.7,0.4-1.9,1.3c-0.2,0.9,0.4,1.7,1.3,1.9c0.9,0.2,1.7-0.4,1.9-1.3
		C524.2,323.2,523.7,322.3,522.8,322.2z"/>
	<path d="M497.6,317.7c-0.9-0.2-1.7,0.4-1.9,1.3c-0.2,0.9,0.4,1.7,1.3,1.9c0.9,0.2,1.7-0.4,1.9-1.3
		C499.1,318.7,498.5,317.9,497.6,317.7z"/>
	<path d="M514.4,320.7c-0.9-0.2-1.7,0.4-1.9,1.3c-0.2,0.9,0.4,1.7,1.3,1.9c0.9,0.2,1.7-0.4,1.9-1.3
		C515.9,321.7,515.3,320.8,514.4,320.7z"/>
	<path d="M540,356.5l14.2-80.7c1.5-8.3-4.1-16.2-12.4-17.7l-49.2-8.7c-8.3-1.5-16.2,4.1-17.7,12.4l-14.2,80.7
		c-1.5,8.3,4.1,16.2,12.4,17.7l49.2,8.7C530.6,370.3,538.5,364.8,540,356.5z M484.2,308.6l0.1-0.6l1.8-10.1l0.4-2.5l0.3-1.8
		c1.2,0.2,2,1.3,1.8,2.5c-0.1,0.6-0.5,1.1-1,1.4l3.4,6.4c1.5,2.9,5.4,3.6,7.8,1.3l9.9-9.1c-0.4-0.5-0.7-1.2-0.5-1.9
		c0.2-1.2,1.3-2,2.5-1.8c1.2,0.2,2,1.3,1.8,2.5c-0.1,0.7-0.6,1.2-1.1,1.6l6.2,11.9c1.5,2.9,5.3,3.6,7.8,1.4l5.4-4.9
		c-0.4-0.5-0.5-1.1-0.4-1.7c0.2-1.2,1.3-2,2.5-1.8l-0.3,1.8h0l-2.2,12.6l-0.1,0.6l-0.4,2.1l-46-8.1L484.2,308.6z M483.4,313l46,8.1
		l-1.3,7.6l-46-8.1L483.4,313z"/>
	<path d="M489.2,316.3c-0.9-0.2-1.7,0.4-1.9,1.3c-0.2,0.9,0.4,1.7,1.3,1.9c0.9,0.2,1.7-0.4,1.9-1.3
		C490.7,317.3,490.1,316.4,489.2,316.3z"/>
</g>
</svg>
