<?xml version="1.0" encoding="utf-8"?>
<!-- Generator: Adobe Illustrator 24.1.3, SVG Export Plug-In . SVG Version: 6.00 Build 0)  -->
<svg version="1.1" id="Layer_1" xmlns="http://www.w3.org/2000/svg" xmlns:xlink="http://www.w3.org/1999/xlink" x="0px" y="0px"
	 viewBox="0 0 612 612" style="enable-background:new 0 0 612 612;" xml:space="preserve">
<g>
	<path d="M591.8,274.6c-1.2-0.3-3.7,2.3-5.1,2.7c-1.5,0.4-1.9,0.7-2.7,1.9s-2.6-1.3-5.5-1.6c-0.7-0.1-1.8,0.1-3.2,0.3
		c0.9-2.5,1-7.4,1.8-11.8c1-5.7,4-7.4,4.7-8.2c0.7-0.8,3.7-0.4,5.7-0.1c1.9,0.2,1.9,0.3,2.3,0c0.4-0.3-0.8-0.9-1.6-1
		c-0.8-0.2-4.7-0.4-5.5-0.7c-0.9-0.4,1.3-1.4,1.8-2c0.6-0.6,7.5-5.4,7.2-5.7s-8.8,4.9-9.5,5.4s0.7-5.4,0.2-5.6
		c-0.6-0.2-0.9,4.2-1.2,5.7c-0.2,1.5-0.4,2.1-2.8,5.1c-2.5,3-3.5,7.8-3.8,12.4c-0.3,3.6-1.1,5.5-2.2,7.2c-4.1,1-8.9,2.5-11.2,3.2
		c-3.6,1.1-15.4,0.1-21,1.1s-28.4,8.1-30.3,8.3c-1.9,0.2-3.8-1.6-8.3-3.4c-2-0.8-5.1-2.1-8.3-3.4c2.4-0.6,5.9-1.2,6.5-1.4
		c0.9-0.2,0.6-1.7,0.6-2.4c0-0.7,4.5-8.1,5.7-9.8c0.3-0.5,1-1.8,1.8-3.6c0.7,0,1.6,0,2.6,0c1.8,0,9.8-0.1,10.9-0.3s6.3-1.2,7.4-1.6
		c1.1-0.4,9.2-6,9.8-6.8s7.2-6.2,8.2-6.5s4.8-3,5.4-3.5c0.6-0.5,3-3.1,2.4-3.6s-3.7,2.6-4.8,3.3s-7.4,4.8-10,7.1
		c-2.6,2.2-12.1,8.4-15.3,9.7s-9.3,0.7-10.6,0.6c-1.1-0.1-3.6-0.2-5.3-0.1c1.9-4.3,4.1-9.8,4.3-10.4c0.2-1-0.8-0.8-1.3-1.3
		s-1.1-12.8-1.1-12.8c-0.2-2.9,3.7-2.7,6.2-2.8s8-1.3,10-1.3c2,0.1,8.2,1.8,11,2.7s9.6,1.4,9.8,1s-7.4-1.7-8.6-1.9
		c-1.3-0.2-4.9-0.8-7.1-1.5c-2.2-0.6-2.6-1.9-4.6-2.2c-1.9-0.3,1.1-3.6,1.8-4.4c0.7-0.8,2-2.7,1.2-2.6c-0.8,0.1-4.2,4.2-6,6.3
		s-9.1,2.3-11.8,2.3c-2.7,0.1-3.8,2.5-4.3,5.3s1.7,8.9,2.3,14c0.6,5.2-9.6,20.1-12.1,23.6c-2,2.7-6.4,2.7-10.3,3.1
		c-2.3-0.6-4.5-1-6.2-0.9c-0.3,0-0.6,0-0.8,0c2.1-1,4.3-2.4,5.2-3.6c1.5-2.1,0.9-5.7,1.6-7.6c0.8-1.9,3.4-1.8,2.2-3
		c-1.2-1.2-2.9,0.9-5.1,2.2c-2.2,1.4-1.3,5.2-3.1,8c-0.9,1.4-4.9,2.7-8.9,3.6c-3.4-0.2-7-0.3-10.4,0.5c-6.5,1.5-14.8,4.2-32.5,9.2
		s-37.5,5.2-46.4,6.2c-3.5,0.4-11.4,1.2-20,2.2c3-3.7,6-7.5,9-11.4l-23.3-11.7l35.2-4.3c5.1-7.1,10-14.4,14.7-21.7l-32.2-11
		l42.8-6.6c3.4-6,6.6-12,9.5-17.9c-11.7,8.3-26,13.2-41.5,13.2c-21.8,0-41.3-9.7-54.4-25l-17,31.2l-17-31.2
		c-13.2,15.3-32.7,25-54.4,25c-15.5,0-29.8-4.9-41.5-13.2c3.1,6.3,6.5,12.7,10.2,19.2l34.2,2.6l-21.8,17.5c4.9,7.5,10,14.9,15.2,22
		l37.7-3.9L245.6,295c0.7,0.9,1.4,1.8,2.1,2.6c-2-0.2-4-0.5-5.8-0.8c-11.7-1.9-19-1.7-27.1-1.6c-9.2,0.1-20.9,1.1-20.9,1.1l2.7,4.4
		c0,0,31.6-1,45.6,1.8c3.3,0.7,7,1.1,10.7,1.4c3.6,4.3,7.2,8.5,10.7,12.4c8.9-3.7,20.6-8.8,24.5-10.6c0.3,0,0.6,0.1,1,0.1
		l-12.5,24.4c13.7,13.9,24.7,22.5,29.7,22.5c5.6,0,18.9-10.9,35-27.9l-11.5-15.5c3.7-0.1,6.6-0.2,7.6-0.2c0.4,0,0.9-0.1,1.6-0.2
		l12.7,4.4c2.2-2.5,4.5-5.2,6.7-7.9c2-0.3,3.8-0.5,5.3-0.6c7.5-0.5,23.4-1.8,28.9-1.6c2.7,0.1,13.5-2.1,24.1-4.6
		c7.9,0.5,19.4,1.4,23.9,1.8c7,0.7,11.7,2.3,20.3,5.6c8.6,3.4,16.4,7.2,18.8,8.2s6.9,3.8,7.6,3.6c0.7-0.2-4-3.2-3.5-4.2
		c0.5-0.9,6.3-3,9.2-3.4c2.9-0.4,6.8-2.5,8.2-1.2c1.4,1.2,3.5,3.2,5.2,5c1.6,1.7,4.9,4.7,4.3,2.3c-0.7-2.4-8.2-7.7-6.8-8.1
		c1.5-0.4,4.6-0.4,4.1-1.3c-0.5-1-6.4-2.6-9.1-1.2s-17.2,5.1-23,3.5c-5.7-1.6-15.2-6.4-22.9-8.6c-5.2-1.5-16.6-3.6-25-4.6
		c6.1-1.5,10.8-2.8,11.7-3.2c2.9-1.4,16.3-5.1,20.9-6.9s19.8-1.4,25.1-0.3c5.3,1.1,22.6,8.8,24.8,9.4c2.2,0.5,7.3-2.9,10.2-4.3
		s19.6-5,22.3-5.4s14.9-0.3,18.3-0.2c3.4,0.1,11.2-3.3,15.3-4.9s7,0.7,8.9,0.7c1.9,0.1,1.8-2.4,3.2-3.3
		C590.3,276.7,593,274.8,591.8,274.6z"/>
	<path d="M194,96.5c11.6-8,25.6-12.7,40.8-12.7c34.9,0,63.9,24.8,70.5,57.7l0.9-2.3l0.9,2.3c6.6-32.9,35.7-57.7,70.5-57.7
		c14.9,0,28.7,4.5,40.1,12.2l9.8-4.2L479.4,0l-85.1,73.5c-21.5-18.5-50-30.2-81.4-31.7l-6.7,24.7l-6.7-24.7
		C268,43.2,239.6,55,218,73.5L133,0.1l52.5,92.8L194,96.5z"/>
	<path d="M234.8,100.5c-30.5,0-55.3,24.8-55.3,55.3s24.8,55.3,55.3,55.3s55.3-24.8,55.3-55.3S265.3,100.5,234.8,100.5z M234.6,192.6
		c-20.4,0-36.9-16.5-36.9-36.9c0-8,2.6-15.5,6.9-21.5c-0.2,0.8-0.3,1.6-0.3,2.4c0,5.6,4.6,10.2,10.2,10.2c5.6,0,10.2-4.6,10.2-10.2
		c0-5.6-4.6-10.2-10.2-10.2c-1,0-1.9,0.1-2.9,0.4c6.3-5,14.2-8,22.9-8c20.4,0,36.9,16.5,36.9,36.9S255,192.6,234.6,192.6z"/>
	<path d="M377.6,100.5c-30.5,0-55.3,24.8-55.3,55.3s24.8,55.3,55.3,55.3s55.3-24.8,55.3-55.3c0-6.7-1.2-13.1-3.3-19
		C421.8,115.6,401.5,100.5,377.6,100.5z M377.6,192.6c-20.4,0-36.9-16.5-36.9-36.9c0-8,2.6-15.5,6.9-21.5c-0.2,0.8-0.3,1.6-0.3,2.4
		c0,5.6,4.6,10.2,10.2,10.2s10.2-4.6,10.2-10.2c0-5.6-4.6-10.2-10.2-10.2c-1,0-1.9,0.1-2.9,0.4c6.3-5,14.2-8,22.9-8
		c13.7,0,25.6,7.5,32,18.5c3.1,5.4,4.9,11.7,4.9,18.3C414.5,176.1,398,192.6,377.6,192.6z"/>
	<path d="M102.5,417.9l-18.1,83h10.8l3.2-16.2h16.5l3.1,16.2h11l-17.8-83H102.5z M99.9,476l2-10.6c1.1-5.7,2-11.2,2.8-16.3
		c0.8-5.1,1.4-10.2,1.9-15.1c1,10.2,2.4,19.8,4,28.8l2.5,13.2H99.9z"/>
	<path d="M166.5,453.8c2-3.6,3-8.4,3-14.3c0-7.7-1.9-13.5-5.6-17.3c-3-2.9-7.5-4.4-13.6-4.4h-14.7v83h11.2v-40.6l15.2,40.6h11.3
		L158,460.5C161.7,459.6,164.5,457.4,166.5,453.8z M146.7,454.6V427h1.9c1.8,0,3.3,0.3,4.5,0.8c1.3,0.5,2.3,1.4,3.1,2.5
		s1.4,2.6,1.8,4.5c0.4,1.8,0.6,4,0.6,6.6c0,4.8-0.9,8.2-2.7,10.2S151,454.6,146.7,454.6z"/>
	<path d="M213.3,499.6v-10.3c-2.6,1.1-4.8,1.7-6.6,1.7c-10.5,0-15.8-10.3-15.8-30.8c0-5.7,0.3-10.6,0.9-14.8
		c0.6-4.2,1.5-7.6,2.7-10.3c1.2-2.7,2.8-4.7,4.7-6s4.2-2,6.8-2c1.9,0,4.3,0.7,7.2,2.1v-10.1c-3-1.6-6.1-2.5-9.2-2.5
		c-8.5,0-14.7,3.6-18.8,10.9c-4.1,7.2-6.2,18.3-6.2,33.1c0,27.5,8.4,41.2,25.2,41.2C207.6,501.9,210.6,501.1,213.3,499.6z"/>
	<polygon points="250.3,500.9 261.4,500.9 261.4,417.9 250.3,417.9 250.3,450.3 233.9,450.3 233.9,417.9 222.7,417.9 222.7,500.9 
		233.9,500.9 233.9,459.8 250.3,459.8 	"/>
	<rect x="274.2" y="417.9" width="11.2" height="83"/>
	<path d="M309.1,443.7c0.6,4.7,1.2,9.1,1.9,13.4c0.7,4.2,1.5,8.4,2.4,12.6L320,501h7.5l7-36.2l0.5-2.8l1.4-7.6
		c0.2-1,0.4-2.2,0.6-3.7s0.5-3.2,0.8-5.2l0.3-1.7c0,0.4,0.1,0.7,0.1,0.9c0,0.2,0,0.4,0,0.5l0.3,10.2l0.5,11.1c0,0.7,0,1.5,0.1,2.6
		c0.1,1,0.1,2.3,0.2,3.7l1.9,28.2h10.7l-7.6-83h-9.7l-6.5,33.3l-1.2,6l-1.4,9l-1.6,9.5c0,0.1-0.1,0.4-0.1,0.7c0,0.3-0.1,0.8-0.2,1.4
		c-0.6-4.7-1.3-9.1-2-13.4c-0.7-4.2-1.6-8.5-2.4-12.7l-7.3-33.9h-9.6l-6.8,83H306L309.1,443.7z"/>
	<polygon points="390.7,427.3 390.7,417.9 361,417.9 361,500.9 390.7,500.9 390.7,491.4 372.2,491.4 372.2,463.1 388.6,463.1 
		388.6,453.6 372.2,453.6 372.2,427.3 	"/>
	<path d="M432.5,424c-2.1-2.3-4.4-3.9-7.1-4.8c-2.9-0.9-6.4-1.4-10.6-1.4H401v83h9c10.5,0,17.7-1.8,21.8-5.4
		c3.3-2.9,5.7-7.1,7.1-12.6c1.5-5.8,2.2-13.2,2.2-22.4c0-10-0.7-17.6-2-23C437.8,432,435.6,427.5,432.5,424z M425.8,484.9
		c-2.3,4.1-6.8,6.2-13.7,6.2v-63.8h1.4c6,0,10.2,2.4,12.4,7.2c2.3,4.8,3.4,13.6,3.4,26.4C429.4,472.8,428.2,480.8,425.8,484.9z"/>
	<polygon points="452.2,500.9 482,500.9 482,491.4 463.4,491.4 463.4,463.1 479.9,463.1 479.9,453.6 463.4,453.6 463.4,427.3 
		482,427.3 482,417.9 452.2,417.9 	"/>
	<path d="M512.1,456c-2.5-2.5-4.5-4.6-6-6.3c-1.6-1.8-2.7-3.2-3.4-4.3c-1.3-2.1-2-4.6-2-7.5c0-3.3,0.9-5.9,2.8-7.9
		c1.9-2.1,4.3-3.1,7.2-3.1c2.7,0,5.8,1.2,9.2,3.7v-10.9c-3.6-1.9-7.4-2.8-11.4-2.8c-5.7,0-10.3,1.9-13.7,5.8
		c-3.4,3.8-5.1,8.9-5.1,15.4c0,4.8,0.9,8.8,2.6,11.9c0.9,1.6,2.3,3.5,4.1,5.6c1.9,2.2,4.2,4.6,7,7.4c1.8,1.8,3.4,3.5,4.6,5
		s2.2,2.8,2.8,4c1.3,2.4,2,5.1,2,8.1c0,3.5-0.9,6.2-2.6,8.3c-1.7,2-4.1,3-7.2,3c-3.3,0-6.9-1.5-10.9-4.4v11
		c3.4,2.6,7.4,3.9,12.2,3.9c5.7,0,10.3-2,13.9-6.1c3.6-4.2,5.4-9.4,5.4-15.9c0-4.7-0.8-8.7-2.5-12
		C519.8,464.6,516.7,460.6,512.1,456z"/>
	<path d="M211.8,576.8h9.7v1.7v2.3c0,7.5-0.7,12.9-2.2,16.2c-1.4,3.2-3.9,4.7-7.5,4.7c-3.9,0-6.5-2.2-7.9-6.7
		c-1.4-4.4-2.1-13-2.1-25.5c0-12.4,0.7-21.1,2-25.9c1.4-4.6,3.9-6.9,7.6-6.9c2.7,0,4.8,0.8,6.1,2.5c0.7,0.8,1.3,2,1.9,3.5
		c0.6,1.5,1.1,3.3,1.6,5.5l10.4-4.4c-1.7-6.1-4.1-10.4-7.2-13.1c-3-2.6-7.3-3.9-12.7-3.9c-7.1,0-12.4,2.7-15.9,8.1
		c-3.7,5.8-5.5,17.4-5.5,34.8c0,15.2,1.7,26.1,5,32.5c3.4,6.5,9,9.7,16.9,9.7c7.7,0,12.9-2.9,15.7-8.7c2.8-5.7,4.2-16.6,4.2-32.7
		v-3.2h-20.3v9.5H211.8z"/>
	<path d="M255.1,528L237,611h10.8l3.2-16.2h16.5l3.1,16.2h11.1l-17.8-83H255.1z M252.5,586.1l2-10.6c1.1-5.7,2-11.2,2.8-16.3
		s1.4-10.2,1.9-15.1c1,10.2,2.4,19.8,4,28.8l2.5,13.2L252.5,586.1L252.5,586.1z"/>
	<path d="M324.4,528l-6.5,33.3l-1.2,6l-1.4,9l-1.6,9.5c0,0.1-0.1,0.4-0.1,0.7s-0.1,0.8-0.2,1.4c-0.6-4.7-1.3-9.1-2-13.4
		c-0.7-4.2-1.6-8.5-2.4-12.7l-7.3-33.9h-9.6l-6.8,83h10.5l3.2-57.2c0.6,4.7,1.2,9.1,1.9,13.4s1.5,8.4,2.4,12.6l6.6,31.3h7.5l7-36.2
		l0.5-2.8l1.4-7.6c0.2-1,0.4-2.2,0.6-3.7s0.5-3.2,0.8-5.2l0.3-1.7c0,0.4,0.1,0.7,0.1,0.9s0,0.4,0,0.5l0.3,10.2l0.5,11.1
		c0,0.7,0,1.5,0.1,2.6c0.1,1,0.1,2.3,0.2,3.7L331,611h10.7l-7.6-83H324.4z"/>
	<polygon points="351,611 380.7,611 380.7,601.5 362.1,601.5 362.1,573.2 378.6,573.2 378.6,563.7 362.1,563.7 362.1,537.4 
		380.7,537.4 380.7,528 351,528 	"/>
	<path d="M410.8,566.1c-2.5-2.5-4.5-4.6-6-6.3c-1.6-1.8-2.7-3.2-3.4-4.3c-1.3-2.1-2-4.6-2-7.5c0-3.3,0.9-5.9,2.8-7.9
		c1.9-2.1,4.3-3.1,7.2-3.1c2.7,0,5.8,1.2,9.2,3.7v-10.9c-3.6-1.9-7.4-2.8-11.4-2.8c-5.7,0-10.3,1.9-13.7,5.8
		c-3.4,3.8-5.1,8.9-5.1,15.4c0,4.8,0.9,8.8,2.6,11.9c0.9,1.6,2.3,3.5,4.1,5.6c1.9,2.2,4.2,4.6,7,7.4c1.8,1.8,3.4,3.5,4.6,5
		s2.2,2.8,2.8,4c1.3,2.4,2,5.1,2,8.1c0,3.5-0.9,6.2-2.6,8.3c-1.7,2-4.1,3-7.2,3c-3.3,0-6.9-1.5-10.9-4.4v11.1
		c3.4,2.6,7.4,3.9,12.2,3.9c5.7,0,10.3-2,13.9-6.1c3.6-4.2,5.4-9.4,5.4-15.9c0-4.7-0.8-8.7-2.5-12
		C418.5,574.7,415.4,570.7,410.8,566.1z"/>
</g>
</svg>
