<?xml version="1.0" encoding="utf-8"?>
<!-- Generator: Adobe Illustrator 24.1.3, SVG Export Plug-In . SVG Version: 6.00 Build 0)  -->
<svg version="1.1" id="Layer_1" xmlns="http://www.w3.org/2000/svg" xmlns:xlink="http://www.w3.org/1999/xlink" x="0px" y="0px"
	 viewBox="0 0 612 612" style="enable-background:new 0 0 612 612;" xml:space="preserve">
<g>
	<path d="M145.4,329.6c20.7,0,37.6-16.8,37.6-37.6c0-20.7-16.8-37.6-37.6-37.6c-20.7,0-37.6,16.8-37.6,37.6
		C107.8,312.8,124.6,329.6,145.4,329.6z M125,277.4c-0.1,0.5-0.2,1.1-0.2,1.6c0,3.8,3.1,6.9,6.9,6.9c3.8,0,6.9-3.1,6.9-6.9
		s-3.1-6.9-6.9-6.9c-0.7,0-1.3,0.1-1.9,0.3c4.3-3.4,9.7-5.4,15.5-5.4c13.8,0,25,11.2,25,25s-11.2,25-25,25s-25-11.2-25-25
		C120.2,286.5,122,281.5,125,277.4z"/>
	<path d="M242.4,254.4c-20.7,0-37.6,16.8-37.6,37.6c0,20.7,16.8,37.6,37.6,37.6c20.7,0,37.6-16.8,37.6-37.6c0-4.5-0.8-8.9-2.3-12.9
		C272.5,264.7,258.6,254.4,242.4,254.4z M242.4,317c-13.8,0-25-11.2-25-25c0-5.5,1.8-10.5,4.7-14.6c-0.1,0.5-0.2,1.1-0.2,1.6
		c0,3.8,3.1,6.9,6.9,6.9c3.8,0,6.9-3.1,6.9-6.9s-3.1-6.9-6.9-6.9c-0.7,0-1.3,0.1-1.9,0.3c4.3-3.4,9.7-5.4,15.5-5.4
		c9.3,0,17.4,5.1,21.7,12.6c2.1,3.7,3.3,7.9,3.3,12.5C267.5,305.8,256.3,317,242.4,317z"/>
	<path d="M271,331.9c-8,5.6-17.7,9-28.2,9c-14.8,0-28-6.6-37-17l-11.5,21.2l-11.5-21.2c-9,10.4-22.2,17-37,17
		c-10.5,0-20.2-3.3-28.2-9c2,4,4.1,8.1,6.4,12.2l29.1,4.5l-21.8,7.5c3.2,5,6.5,9.9,10,14.8l23.9,3l-15.8,8c2,2.7,4.1,5.3,6.1,7.8
		c-5.9-0.6-11.2-1.2-13.6-1.5c-6.1-0.6-19.5-0.8-31.5-4.2s-17.7-5.2-22.1-6.3c-2.3-0.5-4.7-0.5-7.1-0.3c-2.7-0.6-5.5-1.5-6.1-2.5
		c-1.2-1.9-0.6-4.5-2.1-5.4s-2.6-2.3-3.4-1.5s1,0.8,1.5,2.1c0.5,1.3,0.1,3.7,1.1,5.1c0.6,0.8,2.1,1.8,3.5,2.5c-0.2,0-0.4,0-0.6,0
		c-1.2-0.1-2.6,0.2-4.2,0.6c-2.7-0.3-5.7-0.3-7-2.1c-1.7-2.3-8.6-12.5-8.2-16c0.4-3.5,1.9-7.6,1.5-9.5c-0.3-1.9-1.1-3.6-2.9-3.6
		c-1.8,0-6.7-0.2-8-1.6s-3.5-4.2-4.1-4.3c-0.6-0.1,0.3,1.2,0.8,1.8c0.5,0.6,2.5,2.8,1.2,3s-1.6,1.1-3.1,1.5s-4,0.9-4.8,1
		c-0.9,0.1-6,1-5.9,1.3s4.7,0,6.6-0.7c1.9-0.6,6.1-1.8,7.5-1.8s5.1,0.8,6.8,0.9c1.7,0,4.4-0.1,4.2,1.9c0,0-0.5,8.4-0.8,8.7
		c-0.3,0.3-1,0.2-0.9,0.9c0.1,0.4,1.6,4.1,2.9,7.1c-1.1-0.1-2.9,0-3.6,0.1c-0.9,0.1-5,0.5-7.2-0.4s-8.6-5.1-10.4-6.6s-6-4.3-6.8-4.8
		c-0.7-0.5-2.8-2.6-3.2-2.2c-0.4,0.3,1.2,2.1,1.6,2.4s3,2.1,3.6,2.4c0.7,0.2,5.2,3.9,5.6,4.4c0.4,0.6,5.9,4.3,6.6,4.6
		c0.8,0.3,4.3,0.9,5.1,1.1c0.7,0.2,6.2,0.2,7.4,0.2c0.6,0,1.3,0,1.7,0c0.5,1.2,1,2.1,1.2,2.4c0.8,1.1,3.9,6.2,3.9,6.6
		c0,0.5-0.2,1.5,0.4,1.6c0.4,0.1,2.8,0.5,4.4,0.9c-2.2,0.8-4.3,1.7-5.7,2.3c-3.1,1.2-4.4,2.4-5.7,2.3s-16.8-4.9-20.6-5.6
		s-11.8,0-14.3-0.7c-1.5-0.5-4.8-1.5-7.6-2.1c-0.7-1.1-1.3-2.4-1.5-4.9c-0.2-3.1-0.9-6.4-2.6-8.5c-1.7-2-1.8-2.5-1.9-3.5
		s-0.4-4-0.8-3.9s0.6,4.1,0.1,3.8c-0.5-0.3-6.3-3.9-6.5-3.7s4.5,3.4,4.9,3.8s1.8,1.1,1.2,1.4s-3.2,0.4-3.8,0.5
		c-0.5,0.1-1.3,0.5-1.1,0.7s0.2,0.2,1.6,0c1.3-0.2,3.4-0.5,3.9,0.1c0.5,0.5,2.5,1.7,3.2,5.6c0.5,3,0.6,6.3,1.2,8.1
		c-0.9-0.2-1.7-0.3-2.2-0.2c-2,0.2-3.2,1.9-3.7,1.1s-0.8-1-1.8-1.3s-2.7-2.1-3.5-1.9s1,1.4,2,2.1s0.9,2.3,2.2,2.2
		c1.3,0,3.2-1.6,6-0.5s8.1,3.4,10.4,3.3s10.6-0.1,12.4,0.1c1.8,0.3,13.2,2.7,15.2,3.7c2,0.9,5.5,3.3,7,2.9s13.3-5.6,16.8-6.4
		c3.6-0.8,13.9-1,17,0.2s12.2,3.8,14.2,4.7c0.6,0.3,3.8,1.2,8,2.2c-5.7,0.7-13.4,2.1-17,3.1c-5.2,1.5-11.6,4.7-15.5,5.8
		c-3.9,1.1-13.8-1.4-15.6-2.3s-5.9,0.2-6.2,0.8c-0.3,0.7,1.8,0.6,2.8,0.9s-4.1,3.9-4.6,5.5c-0.4,1.6,1.8-0.4,2.9-1.6
		c1.1-1.2,2.5-2.5,3.5-3.4c1-0.8,3.6,0.6,5.6,0.8c2,0.3,5.9,1.6,6.3,2.3c0.3,0.6-2.9,2.7-2.4,2.8c0.5,0.1,3.6-1.7,5.2-2.4
		c1.6-0.7,6.9-3.3,12.8-5.6c5.8-2.3,9.1-3.4,13.8-3.8c3-0.3,10.9-0.9,16.2-1.2c7.2,1.6,14.5,3.2,16.4,3.1c3.8-0.1,14.6,0.7,19.7,1.1
		c1,0.1,2.2,0.2,3.6,0.4c1.5,1.8,3.1,3.6,4.6,5.3l8.6-3c0.5,0.1,0.9,0.1,1.1,0.1c0.7,0,2.7,0.1,5.2,0.2l-7.8,10.5
		c10.9,11.6,19.9,19,23.7,19c3.4,0,10.9-5.8,20.2-15.3l-8.5-16.6c0.2,0,0.4,0,0.7-0.1c2.6,1.2,10.6,4.7,16.7,7.2
		c2.4-2.7,4.8-5.5,7.2-8.4c2.5-0.2,5-0.5,7.3-1c9.5-1.9,31-1.2,31-1.2l1.8-3c0,0-8-0.7-14.2-0.8c-5.5,0-10.5-0.2-18.4,1.1
		c-1.2,0.2-2.6,0.4-3.9,0.5c0.5-0.6,1-1.2,1.4-1.8l-15.7-15.7l25.6,2.7c3.5-4.9,7-9.9,10.3-15l-14.8-11.9l23.2-1.8
		C266.6,340.5,268.9,336.2,271,331.9z"/>
	<path d="M198.8,214.5l-4.6,16.8l-4.6-16.8c-21.3,1-40.7,9-55.3,21.5l-57.8-49.9l35.2,62.4l6.7,2.9c7.8-5.2,17.2-8.3,27.3-8.3
		c23.7,0,43.4,16.8,47.9,39.2l0.6-1.5l0.6,1.5c4.5-22.4,24.2-39.2,47.9-39.2c10.3,0,19.8,3.2,27.7,8.6l5.8-2.5l35.6-63L254,236.1
		C239.5,223.6,220.2,215.5,198.8,214.5z"/>
	<path d="M322.9,296.4H334l2.1,11h7.5l-12-56.4h-5.9l-12.3,56.4h7.3L322.9,296.4z M325.3,283.3c0.7-3.9,1.4-7.6,1.9-11
		c0.5-3.5,1-6.9,1.3-10.3c0.7,6.9,1.6,13.5,2.7,19.6l1.7,9h-9L325.3,283.3z"/>
	<path d="M355.7,279.8l10.3,27.6h7.7L363.4,280c2.5-0.6,4.4-2.1,5.8-4.5s2-5.7,2-9.7c0-5.3-1.3-9.2-3.8-11.7c-2-2-5.1-3-9.2-3h-10
		v56.4h7.6L355.7,279.8L355.7,279.8z M355.7,257.2h1.3c1.2,0,2.2,0.2,3.1,0.5c0.9,0.4,1.6,0.9,2.1,1.7c0.5,0.8,0.9,1.8,1.2,3
		s0.4,2.7,0.4,4.5c0,3.2-0.6,5.5-1.8,6.9c-1.2,1.4-3.3,2-6.2,2v-18.6H355.7z"/>
	<path d="M394.8,308.1c2.3,0,4.3-0.5,6.1-1.5v-7c-1.8,0.8-3.3,1.2-4.5,1.2c-7.1,0-10.7-7-10.7-20.9c0-3.9,0.2-7.2,0.6-10.1
		c0.4-2.8,1-5.2,1.9-7c0.8-1.9,1.9-3.2,3.2-4.1c1.3-0.9,2.8-1.3,4.6-1.3c1.3,0,2.9,0.5,4.9,1.4V252c-2.1-1.1-4.2-1.7-6.3-1.7
		c-5.7,0-10,2.5-12.8,7.4s-4.2,12.4-4.2,22.5C377.7,298.8,383.4,308.1,394.8,308.1z"/>
	<polygon points="414.9,279.5 426.1,279.5 426.1,307.4 433.7,307.4 433.7,251 426.1,251 426.1,273.1 414.9,273.1 414.9,251 
		407.4,251 407.4,307.4 414.9,307.4 	"/>
	<rect x="442.4" y="251" width="7.6" height="56.4"/>
	<path d="M483.3,251l-4.4,22.6l-0.8,4.1l-0.9,6.1l-1.1,6.5c0,0.1,0,0.3-0.1,0.5c0,0.2-0.1,0.6-0.1,1c-0.4-3.2-0.9-6.2-1.4-9.1
		s-1.1-5.8-1.7-8.6l-5-23h-6.5l-4.6,56.4h7.2l2.2-38.9c0.4,3.2,0.8,6.2,1.3,9.1s1,5.7,1.6,8.5l4.5,21.3h5.1l4.7-24.6l0.4-1.9
		l0.9-5.1c0.1-0.7,0.3-1.5,0.4-2.5c0.2-1,0.3-2.2,0.5-3.5l0.2-1.1c0,0.3,0,0.5,0.1,0.6c0,0.2,0,0.3,0,0.3l0.2,6.9l0.3,7.6
		c0,0.5,0,1,0.1,1.8c0,0.7,0.1,1.5,0.1,2.5l1.3,19.1h7.3l-5.2-56.4h-6.6V251z"/>
	<polygon points="501.3,307.4 521.5,307.4 521.5,301 508.9,301 508.9,281.7 520.1,281.7 520.1,275.3 508.9,275.3 508.9,257.4 
		521.5,257.4 521.5,251 501.3,251 	"/>
	<path d="M549.9,255.2c-1.4-1.6-3-2.6-4.8-3.3c-1.9-0.6-4.3-0.9-7.2-0.9h-9.4v56.4h6.1c7.1,0,12-1.2,14.8-3.7c2.2-2,3.8-4.8,4.8-8.6
		c1-3.9,1.5-9,1.5-15.2c0-6.8-0.5-12-1.4-15.6C553.5,260.6,552,257.5,549.9,255.2z M545.4,296.5c-1.6,2.8-4.7,4.2-9.3,4.2v-43.4h0.9
		c4.1,0,6.9,1.6,8.4,4.9s2.3,9.2,2.3,17.9C547.8,288.3,547,293.7,545.4,296.5z"/>
	<polygon points="563.3,307.4 583.5,307.4 583.5,301 570.9,301 570.9,281.7 582.1,281.7 582.1,275.3 570.9,275.3 570.9,257.4 
		583.5,257.4 583.5,251 563.3,251 	"/>
	<path d="M610.3,285c-1.1-2.3-3.2-5-6.3-8.1c-1.7-1.7-3-3.1-4.1-4.3c-1.1-1.2-1.8-2.2-2.3-2.9c-0.9-1.4-1.4-3.1-1.4-5.1
		c0-2.2,0.6-4,1.9-5.4c1.3-1.4,2.9-2.1,4.9-2.1c1.9,0,3.9,0.8,6.2,2.5v-7.4c-2.5-1.3-5-1.9-7.7-1.9c-3.9,0-7,1.3-9.3,3.9
		c-2.3,2.6-3.4,6.1-3.4,10.5c0,3.3,0.6,6,1.8,8.1c0.6,1.1,1.5,2.4,2.8,3.8c1.3,1.5,2.9,3.1,4.8,5c1.2,1.2,2.3,2.4,3.1,3.4
		s1.5,1.9,1.9,2.7c0.9,1.6,1.4,3.5,1.4,5.5c0,2.4-0.6,4.2-1.8,5.6s-2.8,2.1-4.9,2.1c-2.2,0-4.7-1-7.4-3v7.5c2.3,1.8,5.1,2.7,8.3,2.7
		c3.8,0,7-1.4,9.5-4.1c2.5-2.8,3.7-6.4,3.7-10.8C612,290,611.4,287.3,610.3,285z"/>
	<path d="M331.2,359h6.6v1.1v1.5c0,5.1-0.5,8.7-1.5,11c-1,2.1-2.7,3.2-5.1,3.2c-2.6,0-4.4-1.5-5.4-4.5c-0.9-3-1.4-8.8-1.4-17.3
		c0-8.4,0.5-14.3,1.4-17.6c0.9-3.1,2.7-4.7,5.2-4.7c1.9,0,3.2,0.6,4.2,1.7c0.5,0.6,0.9,1.3,1.3,2.4c0.4,1,0.7,2.3,1.1,3.7l7.1-3
		c-1.2-4.1-2.8-7.1-4.9-8.9s-5-2.7-8.7-2.7c-4.8,0-8.4,1.8-10.8,5.5c-2.5,3.9-3.7,11.8-3.7,23.6c0,10.3,1.1,17.7,3.4,22.1
		s6.1,6.6,11.5,6.6c5.2,0,8.8-2,10.7-5.9c1.9-3.8,2.9-11.3,2.9-22.2v-2.2h-13.8v6.6H331.2z"/>
	<path d="M360.6,325.8l-12.3,56.4h7.3l2.2-11H369l2.1,11h7.5l-12.1-56.4H360.6z M358.8,365.3l1.4-7.2c0.7-3.9,1.4-7.6,1.9-11
		c0.5-3.5,1-6.9,1.3-10.3c0.7,6.9,1.6,13.5,2.7,19.6l1.7,9h-9V365.3z"/>
	<path d="M407.6,325.8l-4.4,22.6l-0.8,4.1l-0.9,6.1l-1.1,6.5c0,0.1,0,0.3-0.1,0.5c0,0.2-0.1,0.6-0.1,1c-0.4-3.2-0.9-6.2-1.4-9.1
		s-1.1-5.8-1.7-8.6l-5-23h-6.5l-4.6,56.4h7.2l2.2-38.9c0.4,3.2,0.8,6.2,1.3,9.1s1,5.7,1.6,8.5l4.5,21.3h5.1l4.7-24.6l0.4-1.9
		l0.9-5.1c0.1-0.7,0.3-1.5,0.4-2.5c0.2-1,0.3-2.2,0.5-3.5l0.2-1.1c0,0.3,0,0.5,0.1,0.6c0,0.2,0,0.3,0,0.3l0.2,6.9l0.3,7.6
		c0,0.5,0,1,0.1,1.8c0,0.7,0.1,1.5,0.1,2.5l1.3,19.1h7.3l-5.2-56.4h-6.6V325.8z"/>
	<polygon points="425.7,382.2 445.9,382.2 445.9,375.8 433.3,375.8 433.3,356.5 444.5,356.5 444.5,350.1 433.3,350.1 433.3,332.2 
		445.9,332.2 445.9,325.8 425.7,325.8 	"/>
	<path d="M466.4,351.7c-1.7-1.7-3-3.1-4.1-4.3c-1.1-1.2-1.8-2.2-2.3-2.9c-0.9-1.4-1.4-3.1-1.4-5.1c0-2.2,0.6-4,1.9-5.4
		s2.9-2.1,4.9-2.1c1.9,0,3.9,0.8,6.2,2.5V327c-2.5-1.3-5-1.9-7.7-1.9c-3.9,0-7,1.3-9.3,3.9s-3.4,6.1-3.4,10.5c0,3.3,0.6,6,1.8,8.1
		c0.6,1.1,1.5,2.4,2.8,3.8c1.3,1.5,2.9,3.1,4.8,5c1.2,1.2,2.3,2.4,3.1,3.4c0.8,1,1.5,1.9,1.9,2.7c0.9,1.6,1.4,3.5,1.4,5.5
		c0,2.4-0.6,4.2-1.8,5.6c-1.2,1.4-2.8,2.1-4.9,2.1c-2.2,0-4.7-1-7.4-3v7.5c2.3,1.8,5.1,2.7,8.3,2.7c3.8,0,7-1.4,9.5-4.1
		c2.5-2.8,3.7-6.4,3.7-10.8c0-3.2-0.6-5.9-1.7-8.1C471.6,357.6,469.5,354.8,466.4,351.7z"/>
</g>
</svg>
