<?xml version="1.0" encoding="utf-8"?>
<!-- Generator: Adobe Illustrator 24.1.3, SVG Export Plug-In . SVG Version: 6.00 Build 0)  -->
<svg version="1.1" id="Layer_1" xmlns="http://www.w3.org/2000/svg" xmlns:xlink="http://www.w3.org/1999/xlink" x="0px" y="0px"
	 viewBox="0 0 612 612" style="enable-background:new 0 0 612 612;" xml:space="preserve">
<path d="M341.1,223.4c0.5,4.4,0.8,9.3,0.8,14.7c-44.4,21.3-86.5,5.1-86.5,5.1c-0.1-2.4,0.7-7,2.1-12.5l12.4,7.5l8.9-11.4l10.9,9.1
	l7.5-11.7l8.4,9.8l9.3-14.1c0,0,10.6,11,11.1,11.7c0,0,0,0,0,0c0,0,0,0,0,0c-0.2-0.7,7.7-11.3,7.7-11.3l4.7,7L341.1,223.4z
	 M339.9,207.1l-4.4-4.8l-4.4,8.2l-9.7-6.6l-7.2,10.4l-14-10.6l-2.2,10.6l-13.5-10.6l-7,13L264.8,206l-3.1,5
	c-22.6-11-38.6-32.2-40-57.5c-2.3-38.6,30-71.8,72.1-74.3c15.5-0.9,30.1,2.5,42.5,9l-5.3,20.9l19.3-11.4
	c13.7,11.8,22.7,28.2,23.8,46.8C375.6,170.3,361.8,193.6,339.9,207.1z M288.7,171.8c-1.3-9.4-5.8-17.4-19.4-14.7
	c-15,2.9-16,10-14.7,19.4c1.3,9.4,10,16,19.4,14.7C283.4,189.9,290,181.2,288.7,171.8z M347,163.3c0-14-8.7-23.2-25.3-25.3
	c-21.3-2.7-25.3,11.3-25.3,25.3c0,14,11.3,25.3,25.3,25.3C335.6,188.7,347,177.3,347,163.3z M60.1,401.3c-4.4-1.9-8.9-3.9-13.4-5.7
	c-5.2-13.7-10.3-27.4-15.5-41.1c12.7,8.5,25.1,17.2,37.1,26.2c4-14.5,8.4-28.9,13.3-43.3c4.2,14,8.5,28,12.7,42
	c-2.4,4.2-4.8,8.5-7.1,12.7c13.1-4.2,26.3-7.9,39.6-11.3c-4.2-2.4-8.4-4.7-12.7-7c-4.8-17.7-9.6-35.5-14.4-53.2
	c2.8-4.2,5.6-8.4,8.5-12.6c-10.6,2.7-21.2,5.7-31.8,8.8c-4.4,11.9-8.4,23.8-12.2,35.8c-10.1-7.3-20.4-14.5-31-21.4
	C22,335.2,10.9,339.5,0,344c4.9,1.6,9.7,3.2,14.5,4.9c6.8,17.1,13.6,34.1,20.3,51.2c-2.1,4.4-4.1,8.8-6.1,13.3
	C39.1,409.2,49.6,405.1,60.1,401.3z M188.8,301.6c-9.5-6.6-20.7-8.8-33.5-6.4c-12.8,2.5-22.5,8.7-28.8,18.3
	c-6.2,9.6-7.9,19.6-5.3,29.9c2.6,10.4,8.7,18.4,18,24.3c9.3,5.9,19.5,7.7,31.1,5.5c11.5-2.2,20.4-7.7,26.9-16.6
	c6.5-9,9.2-18.7,7.7-29.3C203.5,316.9,198.2,308.2,188.8,301.6z M173,310.7c3.7,5.3,6.2,12.1,7.6,20.3c1.4,8.2,1.2,15.4-0.4,21.6
	c-1.6,6.2-5.5,9.9-11.7,11.1c-6.2,1.2-11.1-0.7-14.9-5.9c-3.7-5.2-6.6-11.8-8.3-20c-1.8-8.3-2-15.6-0.6-21.8
	c1.4-6.2,5.6-10,12.4-11.3C164,303.4,169.3,305.4,173,310.7z M246.6,360.6c-3.7-3-7.5-6-11.3-9c-1.3-13.7-2.7-27.4-4-41
	c19.9,18.8,38.4,38.3,55.5,58.5c-0.7-25.2-1.5-50.5-2.2-75.7c3.7-3.5,7.4-6.9,11.1-10.3c-12.2,0.2-24.4,0.6-36.6,1.4
	c4,3.1,8,6.3,11.9,9.4c0.4,10.4,0.9,20.9,1.3,31.3c-12.4-13.2-25.4-26.1-39.1-38.7c-9.7,0.9-19.5,2-29.2,3.2
	c4.2,2.8,8.4,5.7,12.5,8.6c2.1,18.2,4.2,36.5,6.3,54.7c-3.1,3.7-6.2,7.5-9.2,11.2C224.6,362.7,235.6,361.5,246.6,360.6z
	 M323.7,359.4c1.8,0,3.7,0.1,5.7,0.2c10,0.3,17.6-1.6,22.8-5.8c5.3-4.3,8.2-9.6,8.7-16c0.3-4.2-0.6-7.9-2.8-11.1
	c-2.2-3.2-4.9-5.6-8.1-7.4c-7-4-14.2-7.8-21.4-11.6c-2.8-1.5-4.8-3.1-6-4.7c-1.2-1.6-1.8-3.2-1.8-4.7c0-1.5,1.1-3.1,3.2-4.7
	c2.1-1.6,4.7-2.4,7.9-2.3c1.8,0.1,3.9,0.6,6.4,1.7c3.8,3.5,7.5,7.1,11.1,10.7c4.3-5.3,8.6-10.7,13-15.9c-7.5-1.5-14.9-2.8-22.5-4.1
	c-1.6-0.4-3.2-0.6-4.6-0.7c-1.5-0.1-2.9-0.1-4.3-0.1c-9.8-0.3-17.3,1.7-22.5,5.9c-5.2,4.2-7.7,9-7.6,14.6c0,3.1,1.2,6.4,3.4,10
	c2.2,3.5,6,6.7,11.5,9.5c7.1,3.6,14.2,7.4,21.1,11.2c1.3,0.9,2.3,2,3.2,3.1c0.8,1.2,1.2,2.6,1.1,4.4c-0.2,3.3-1.5,5.8-4,7.4
	c-2.5,1.6-5.3,2.4-8.3,2.3c-2.8-0.1-5.2-0.8-7.3-2.2c-3.9-3.8-7.8-7.6-11.9-11.3c-3.7,5.9-7.3,11.8-10.8,17.7
	c7.1,0.9,14.2,1.9,21.3,3.1C320.8,358.7,322,359,323.7,359.4z M419.7,366.7c-2.9-3.8-5.9-7.7-8.9-11.4c2.6-18.3,5.2-36.6,7.8-54.9
	c4.1,0.6,8.1,1.2,12.1,1.8c3.9,4.7,7.6,9.4,11.4,14.1c1.2-7.1,2.5-14.3,3.7-21.4c-24.4-4.3-49-7.4-73.7-9.4
	c-0.6,7.2-1.2,14.4-1.7,21.6c4.7-3.6,9.5-7.2,14.3-10.8c4,0.4,8,0.8,12,1.3c-2.1,18.4-4.2,36.7-6.2,55.1c-3.9,2.9-7.7,5.9-11.5,8.9
	C392.6,362.9,406.1,364.6,419.7,366.7z M500.7,384.1c1.9-7,3.9-14.1,5.8-21.1c-5.2,2.8-10.4,5.6-15.5,8.5c-6.8-1.8-13.7-3.4-20.6-5
	c1.9-8.3,3.7-16.5,5.6-24.8c4.9,1.1,9.7,2.2,14.5,3.4c2.6,4,5.3,8,7.8,12c2.5-9.4,4.9-18.8,7.4-28.3c-4.3,2.3-8.6,4.6-12.9,6.9
	c-4.9-1.2-9.8-2.4-14.7-3.5c1.5-6.7,3-13.5,4.6-20.2c7.5,1.7,15,3.5,22.5,5.4c3.3,4.9,6.5,9.9,9.7,14.9c1.9-6.9,3.8-13.8,5.7-20.8
	c-22.8-6.3-45.8-11.5-69-15.8c3.2,4,6.3,8,9.3,12c-3.6,18.1-7.1,36.2-10.7,54.3c-4.1,2.5-8.1,5-12.1,7.6
	C459.1,373.7,480,378.4,500.7,384.1z M586.1,413.4c-2.2-4.8-4.4-9.6-6.7-14.4c-2.1-10-4.4-20-7-30c4.5,0.2,8.9-0.5,13.3-2.2
	c4.3-1.7,7.3-4.6,9-8.8c2.5-6.3,0.9-12.5-5-18.4c-5.9-5.9-13.8-10.6-23.4-13.9c-12.6-4.3-25.2-8.2-37.9-11.9
	c2.8,4.3,5.5,8.6,8.2,12.8c-5.3,17.6-10.6,35.2-15.9,52.8c-4.4,2.2-8.7,4.4-12.9,6.6c13.2,3.8,26.4,8,39.5,12.5
	c-2.2-4.3-4.5-8.6-6.8-12.9c2.4-7.3,4.8-14.6,7.3-21.9c1.4,0.5,2.8,0.9,4.2,1.4c2.9,12.6,5.5,25.2,7.7,37.8
	C568.5,406.3,577.3,409.8,586.1,413.4z M550.7,354.7c2.4-7.2,4.8-14.4,7.2-21.5c1.7,0.6,3.5,1.2,5.2,1.8c3.7,1.3,6.5,3.3,8.1,6.2
	c1.7,2.8,2,5.7,1,8.5c-1.1,3-3.2,5.2-6.3,6.6c-3.1,1.4-6.5,1.4-10.1,0.2C554.1,355.8,552.4,355.2,550.7,354.7z M151.3,458.1h32.1
	l-8.1-8.1v-16.1h6.4c7.3,0,13.9-1.6,19.7-4.8c5.8-3.2,8.7-7.7,8.7-13.5c0-6-2.8-10.5-8.5-13.7c-5.7-3.2-12.3-4.7-19.8-4.7h-30.4
	l8.1,8.1V450L151.3,458.1z M189.4,408.1c2.1,2.1,3.2,4.6,3.2,7.4c0,2.7-1.1,5.1-3.3,7.2c-2.2,2.1-4.7,3.1-7.7,3.1h-6.4v-21h6.4
	C184.7,404.9,187.3,406,189.4,408.1z M222.5,458.1l-7.8-7.8l3.4-8.4H237l3,8.4l-7.9,7.9h32.8l-8.5-8.5l-20.8-52.5h-9.9l-21.2,52.5
	l-8.5,8.5H222.5z M233.9,434l-12.8,0l6.5-16.2L233.9,434z M329.3,458.1l-8.9-8.8l-12.9-20.8c3.2-1.1,6-2.9,8.5-5.5
	c2.5-2.6,3.7-5.7,3.7-9.3c0-5.5-2.7-9.7-8.1-12.5c-5.4-2.8-11.6-4.2-18.8-4.2H265l8.1,8.1V450l-8.1,8.1h32.1L289,450v-18.7h3.3
	l15.1,26.9H329.3z M289,423.4v-18.4h3.9c2.8,0,5.1,0.9,6.9,2.6c1.8,1.7,2.7,3.8,2.7,6.2c0,2.6-0.9,4.9-2.7,6.8
	c-1.8,1.9-4.1,2.8-6.9,2.8H289z M368.1,458.1L360,450v-45h8.8l9.8,9.8v-17.6h-52.8v17.6l9.6-9.8h8.7v45l-8.1,8.1H368.1z
	 M379.2,397.1l8.5,8.4l16.5,25.4V450l-8.1,8.1h32L420,450v-19.3l16.1-25.2l8.4-8.4h-26.2l7.8,7.8l-10.4,16.8l-10.3-16.8l7.9-7.9
	H379.2z M466.4,484l6-0.1v0l-2.7-1.4l2.7-0.5v-0.3c-2.5-0.2-5.8-0.4-5.8-0.4l5.8-0.4v-0.6H365.6c-1.1,0.1-2.1,0.2-2.1,0.2l-4.9-0.2
	h-22l-5.2,0.2l-2.4-0.2h-57l-3.2,0.2l-0.9-0.2h-74.1l-2.3,0.2l-2.1-0.2h-65.9v0.6l6.6,0.4l-6.5,0.2l2.7,0.2l-2.8,0.1v1.3l6.8,0.4
	l-6.8,0.4v0.6l2.1,0l-2.1,0.3v0.3h15.6l-1-0.3l4.8,0.3h6.4l-4.3-0.3l15.3,0.1l-3.9,0.2h24.5c-6.8-0.1-13.3-0.2-13.6-0.2l33,0
	l-1.6,0.2h6l3.8-0.3l9.7,0.3h5.6l-4.7-0.1l33-0.1l-7.3,0.2h6.5l22-0.4l12.7,0.4h4.9l9.2-0.3l0.9,0.3h17.2
	c-8.3-0.1-15.4-0.2-15.8-0.2l59.4-0.1l-9.4,0.3h10.4l5.5-0.5l10.9,0.5l3.5-0.6l2.8,0.7h28.1l-9.7-0.3l20.6,0l-3.8,0.3h6.8l13.4-0.5
	l4.4,0.5c2.3-0.3,4.7-0.5,4.7-0.5s1.3,0.3,2.4,0.5h19.9v-0.7L466.4,484z M140,532.2h13.8l-3.5-3.5v-8.8h4.8l3.4,3.4v-10.2l-3.4,3.4
	h-4.8v-7.2h7.1l4.1,4.2v-7.6H140l3.5,3.5v19.3L140,532.2z M162.3,505.9l3.5,3.5v19.3l-3.5,3.5h13.8l-3.5-3.5v-19.3l3.5-3.5H162.3z
	 M190.6,505.9h-14.2l3.6,3.6l8.2,22.6h4.3l8.4-22.6l3.6-3.6H193l3.5,3.4l-4.7,13.6l-4.5-13.6L190.6,505.9z M225.7,532.2v-7.6
	l-4.2,4.3h-7v-8.9h4.8l3.4,3.4v-10.2l-3.4,3.4h-4.8v-7.2h7.1l4.1,4.1v-7.5h-21.5l3.5,3.5v19.4l-3.5,3.4H225.7z M230,520.5h14v-4h-14
	V520.5z M255.7,532.6c0.6,0,1.3,0,1.9,0c3.4,0,5.9-0.8,7.6-2.4c1.7-1.6,2.5-3.5,2.5-5.8c0-1.5-0.4-2.7-1.2-3.8
	c-0.8-1.1-1.7-1.9-2.7-2.4l-6.9-3.7c-0.9-0.5-1.5-1-1.9-1.6c-0.4-0.6-0.6-1.1-0.6-1.6c0-0.5,0.3-1.1,1-1.7c0.6-0.6,1.4-0.9,2.4-0.9
	c0.5,0,1.2,0.2,2,0.5l3.6,3.6l3.7-5.8l-6.9-1c-0.5-0.1-1-0.2-1.4-0.2c-0.4,0-0.9,0-1.3,0c-3,0-5.3,0.7-6.9,2.2
	c-1.6,1.5-2.4,3.1-2.4,5.1c0,1.1,0.3,2.2,1.1,3.5c0.7,1.2,1.9,2.3,3.7,3.3l6.9,3.7c0.4,0.3,0.8,0.7,1.1,1.1c0.3,0.4,0.4,0.9,0.4,1.5
	c0,1.2-0.4,2.1-1.2,2.7c-0.8,0.6-1.7,0.9-2.7,0.9c-0.9,0-1.8-0.2-2.5-0.7l-4-3.9l-3.6,6.2l7.2,1.1
	C254.7,532.4,255.1,532.5,255.7,532.6z M271.7,509.4V525c0,2.4,1.1,4.3,3.2,5.8c2.1,1.4,4.6,2.2,7.4,2.2c2.9,0,5.4-0.7,7.4-2.2
	c2.1-1.5,3.1-3.4,3.1-5.7v-15.6l3.4-3.5h-11.3l3.5,3.5V525c0,1.2-0.5,2.2-1.5,3c-1,0.9-2.1,1.3-3.5,1.3c-1.4,0-2.5-0.4-3.5-1.3
	c-1-0.9-1.5-1.9-1.5-3v-15.6l3.4-3.5h-13.8L271.7,509.4z M297.9,505.9l3.5,3.5v19.3l-3.5,3.5h13.8l-3.5-3.5v-19.3l3.5-3.5H297.9z
	 M332.2,532.2l-3.5-3.5v-19.4h3.8l4.2,4.2v-7.6H314v7.6l4.1-4.2h3.7v19.4l-3.5,3.5H332.2z M350.7,532.2h14.1c3.9,0,7.1-1.3,9.7-3.9
	c2.6-2.6,3.9-5.7,3.9-9.2c0-3.5-1.3-6.6-3.9-9.2c-2.6-2.6-5.8-3.9-9.7-3.9h-14.1l3.5,3.5v19.4L350.7,532.2z M368.9,525.9
	c-1.1,1.9-2.8,2.9-5,2.9h-2.7v-19.5h2.7c2.2,0,3.9,1,5,2.9c1.1,1.9,1.7,4.2,1.7,6.8C370.6,521.7,370,524,368.9,525.9z M400.1,532.2
	v-7.6l-4.2,4.3h-7v-8.9h4.8l3.4,3.4v-10.2l-3.4,3.4h-4.8v-7.2h7.1l4.1,4.1v-7.5h-21.5l3.5,3.5v19.4l-3.5,3.4H400.1z M424.3,507
	c-1.5-0.7-2.9-1.2-4-1.4c-1.1-0.2-2.7-0.3-4.6-0.3c-3.8,0-7,1.4-9.6,4.1c-2.6,2.8-4,5.9-4,9.5c0,3.7,1.3,6.8,4,9.6
	c2.6,2.7,5.9,4.1,9.6,4.1c1.9,0,3.4-0.1,4.6-0.3c1.2-0.2,2.5-0.6,4-1.2v-7.9l-4.6,4.5c-0.6,0.5-1.3,0.9-2,1.2
	c-0.7,0.3-1.4,0.4-2.1,0.4c-2.2,0-3.7-1-4.5-2.9c-0.8-1.9-1.2-4.4-1.2-7.4c0-3,0.4-5.5,1.2-7.5c0.8-2,2.3-2.9,4.6-2.9
	c0.7,0,1.4,0.1,2.1,0.4c0.7,0.3,1.3,0.7,1.9,1.1l4.6,4.6V507z M440.6,532.2l-3.5-3.5l0-9l7.9,9.6l0,2.9h10.9l-13.1-15.8l12-10.5H443
	l3.1,3l-9,8v-7.5l3.5-3.5h-13.8l3.5,3.5v19.3l-3.5,3.5H440.6z M602.4,333.1v1.9h-2.1v5.6H598v-5.6h-2.1v-1.9H602.4z M612,333.1v7.5
	h-2.2v-4.8h0l-1.3,4.8h-1.7l-1.3-4.8h0v4.8h-2.2v-7.5h3.3l1.1,4.4h0l1.1-4.4H612z"/>
</svg>
