<?xml version="1.0" encoding="utf-8"?>
<!-- Generator: Adobe Illustrator 24.1.3, SVG Export Plug-In . SVG Version: 6.00 Build 0)  -->
<svg version="1.1" id="Layer_1" xmlns="http://www.w3.org/2000/svg" xmlns:xlink="http://www.w3.org/1999/xlink" x="0px" y="0px"
	 viewBox="0 0 612 612" style="enable-background:new 0 0 612 612;" xml:space="preserve">
<path d="M132.4,305.6c0.2-95.6,77.8-173.1,173.2-173c96,0.1,173.8,78.2,173.6,174.2c-0.2,95.5-78.5,173-174.4,172.6
	C209.3,479.1,132.2,401.4,132.4,305.6z M86.7,129.2c10.8,12.2,22.2,24,34.5,34.8c12,10.5,30,8.5,40.9-3
	c10.8-11.4,11.4-29.4,0.5-41.1c-10.2-11.1-20.9-21.8-32-31.9c-9.5-8.6-21-9.9-32.7-4.4C86.5,89,81,98.6,80.1,114.2
	C81.5,117.6,82.7,124.7,86.7,129.2z M98.4,528.7c12.3,5.4,23.9,3.4,33.6-5.8c10.2-9.6,20.1-19.6,29.7-29.7
	c11.7-12.2,11.5-30.8,0-42.6c-11.6-11.9-30-12.6-42.5-1c-10.6,9.8-20.6,20.2-30.7,30.6c-5.6,5.7-8.1,12.8-8.3,22.3
	C81.1,513.6,86.6,523.5,98.4,528.7z M447.7,490.4c10.6,12.1,22,23.6,34.1,34.3c11.7,10.3,29.6,8.7,40.5-2.4
	c10.8-11,12.2-29.1,1.9-40.6c-10.5-11.7-21.6-22.8-33.3-33.3c-9.3-8.4-20.7-9.5-32.1-4.1c-11.4,5.4-17,14.8-17.9,30.8
	C442.2,478.5,443.6,485.7,447.7,490.4z M458.8,167.8c11.4,5.5,24.4,3.5,33.7-5.4c10-9.5,19.7-19.3,29.3-29.2
	c12.3-12.7,12.4-31.5,0.5-43.5c-12-12.1-30.6-12.1-43.5,0.2c-9.8,9.4-19.3,19.1-28.8,28.8c-5.8,5.8-8.7,12.9-8.9,22.6
	C441.5,152.7,447.1,162.3,458.8,167.8z M275.3,71.3c0.3,17.1,12.9,30.2,29.4,30.7c16.5,0.5,30.5-11.7,31.4-28.6
	c0.8-14.8,0.8-29.7,0-44.6C335.3,11.7,321-0.7,304.2,0c-16.4,0.7-28.7,14-29,31.1c-0.1,6.6,0,13.2,0,19.7
	C275.3,57.7,275.2,64.5,275.3,71.3z M275.3,581.5c0.4,17,13.2,30.1,29.6,30.5c16.5,0.4,30.4-12,31.2-28.9c0.7-14.6,0.7-29.3,0-43.9
	c-0.7-17.2-14.7-29.7-31.6-29.2c-16.4,0.5-29.1,13.7-29.4,30.7c-0.1,6.8,0,13.6,0,20.4C275.3,567.9,275.1,574.7,275.3,581.5z
	 M581.7,336.6c17.1-0.4,30.2-13.8,30.2-30.6c0-16.7-13.2-30.2-30.3-30.5c-14-0.2-28-0.3-42,0c-16.5,0.4-29.6,14.1-29.6,30.6
	c0,16.5,13,30,29.7,30.5c7,0.2,14,0,21,0C567.7,336.6,574.7,336.8,581.7,336.6z M72.4,336.6C89,336,102,322.3,102,305.9
	c-0.1-16.5-13.1-30-29.8-30.4c-14.2-0.3-28.4-0.3-42.6,0C13,275.9,0,289.7,0,306.2c0,16.5,13.1,29.9,29.7,30.4c7,0.2,14,0,21,0
	C58,336.6,65.2,336.8,72.4,336.6z"/>
</svg>
